<svg width="124" height="124" viewBox="0 0 124 124" fill="none" xmlns="http://www.w3.org/2000/svg">
<path d="M115.729 92.9382C110.509 102.003 103.081 109.6 94.1347 115.022L90.926 109.728C98.9786 104.847 105.665 98.0089 110.364 89.8489L115.729 92.9382Z" fill="#9B51E0"/>
<path d="M122.206 47.195C126.133 63.1627 123.555 80.0363 115.041 94.1036L109.719 90.8824C117.379 78.2265 119.698 63.0461 116.165 48.6805L122.206 47.195Z" fill="#F852C9"/>
<path d="M62 0C75.9003 1.6576e-07 89.3975 4.67113 100.324 13.2634C111.251 21.8556 118.973 33.8705 122.251 47.3788L116.23 48.8399C113.28 36.6816 106.329 25.8674 96.4943 18.1338C86.6595 10.4002 74.5112 6.1959 62 6.1959V0Z" fill="#F6E54D"/>
<path d="M62 0C52.3866 -1.14639e-07 42.9048 2.23553 34.3039 6.52996C25.703 10.8244 18.2185 17.0601 12.4418 24.7443C6.6651 32.4286 2.75446 41.3509 1.01883 50.8064C-0.7168 60.2619 -0.229864 69.9914 2.44117 79.2263C5.1122 88.4612 9.89415 96.9485 16.4092 104.018C22.9243 111.087 30.9939 116.544 39.9807 119.958C48.9674 123.372 58.625 124.65 68.1904 123.69C77.7558 122.73 86.9669 119.559 95.0961 114.428L91.7741 109.165C84.4609 113.782 76.1743 116.635 67.569 117.498C58.9637 118.362 50.2755 117.212 42.1909 114.141C34.1062 111.069 26.8465 106.16 20.9854 99.8001C15.1243 93.4406 10.8223 85.8052 8.41939 77.4972C6.01646 69.1892 5.5784 60.4363 7.13982 51.9299C8.70123 43.4236 12.2193 35.3968 17.4162 28.4839C22.6131 21.5709 29.3463 15.9611 37.0839 12.0978C44.8215 8.23439 53.3515 6.22325 62 6.22325V0Z" fill="#55EE1F"/>
</svg>
