<svg width="342" height="152" viewBox="0 0 342 152" fill="none" xmlns="http://www.w3.org/2000/svg">
<path d="M218.729 98.9382C213.509 108.003 206.081 115.6 197.135 121.022L193.926 115.728C201.979 110.847 208.665 104.009 213.364 95.8489L218.729 98.9382Z" fill="#9B51E0"/>
<path d="M225.206 53.195C229.133 69.1627 226.555 86.0363 218.041 100.104L212.719 96.8824C220.379 84.2265 222.698 69.0461 219.165 54.6805L225.206 53.195Z" fill="#F852C9"/>
<path d="M165 6C178.9 6 192.397 10.6711 203.324 19.2634C214.251 27.8556 221.973 39.8705 225.251 53.3788L219.23 54.8399C216.28 42.6816 209.329 31.8674 199.494 24.1338C189.66 16.4002 177.511 12.1959 165 12.1959V6Z" fill="#F6E54D"/>
<path d="M165 6C155.387 6 145.905 8.23553 137.304 12.53C128.703 16.8244 121.218 23.0601 115.442 30.7443C109.665 38.4286 105.754 47.3509 104.019 56.8064C102.283 66.2619 102.77 75.9914 105.441 85.2263C108.112 94.4612 112.894 102.949 119.409 110.018C125.924 117.087 133.994 122.544 142.981 125.958C151.967 129.372 161.625 130.65 171.19 129.69C180.756 128.73 189.967 125.559 198.096 120.428L194.774 115.165C187.461 119.782 179.174 122.635 170.569 123.498C161.964 124.362 153.276 123.212 145.191 120.141C137.106 117.069 129.846 112.16 123.985 105.8C118.124 99.4406 113.822 91.8052 111.419 83.4972C109.016 75.1892 108.578 66.4363 110.14 57.9299C111.701 49.4236 115.219 41.3968 120.416 34.4839C125.613 27.5709 132.346 21.9611 140.084 18.0978C147.822 14.2344 156.352 12.2233 165 12.2233V6Z" fill="#55EE1F"/>
<path d="M59 44H93L102.5 52" stroke="white" stroke-opacity="0.8"/>
<circle cx="105" cy="54" r="4" fill="white"/>
<path d="M253 16H217.046L207 24" stroke="white" stroke-opacity="0.8"/>
<circle cx="208" cy="24" r="4" fill="white"/>
<g filter="url(#filter0_d)">
<path d="M271 89H235.046L225 79" stroke="white" stroke-opacity="0.8"/>
<circle cx="226" cy="79" r="4" fill="white"/>
</g>
<path d="M255 126.5H222.5L209 112" stroke="white" stroke-opacity="0.8"/>
<circle cx="210" cy="112" r="4" fill="white"/>
<path d="M4.67188 42.9297C3.38542 42.5599 2.44792 42.1068 1.85938 41.5703C1.27604 41.0286 0.984375 40.362 0.984375 39.5703C0.984375 38.6745 1.34115 37.9349 2.05469 37.3516C2.77344 36.763 3.70573 36.4688 4.85156 36.4688C5.63281 36.4688 6.32812 36.6198 6.9375 36.9219C7.55208 37.224 8.02604 37.6406 8.35938 38.1719C8.69792 38.7031 8.86719 39.2839 8.86719 39.9141H7.35938C7.35938 39.2266 7.14062 38.6875 6.70312 38.2969C6.26562 37.901 5.64844 37.7031 4.85156 37.7031C4.11198 37.7031 3.53385 37.8672 3.11719 38.1953C2.70573 38.5182 2.5 38.9688 2.5 39.5469C2.5 40.0104 2.69531 40.4036 3.08594 40.7266C3.48177 41.0443 4.15104 41.3359 5.09375 41.6016C6.04167 41.8672 6.78125 42.1615 7.3125 42.4844C7.84896 42.8021 8.24479 43.1745 8.5 43.6016C8.76042 44.0286 8.89062 44.5312 8.89062 45.1094C8.89062 46.0312 8.53125 46.7708 7.8125 47.3281C7.09375 47.8802 6.13281 48.1562 4.92969 48.1562C4.14844 48.1562 3.41927 48.0078 2.74219 47.7109C2.0651 47.4089 1.54167 46.9974 1.17188 46.4766C0.807292 45.9557 0.625 45.3646 0.625 44.7031H2.13281C2.13281 45.3906 2.38542 45.9349 2.89062 46.3359C3.40104 46.7318 4.08073 46.9297 4.92969 46.9297C5.72135 46.9297 6.32812 46.7682 6.75 46.4453C7.17188 46.1224 7.38281 45.6823 7.38281 45.125C7.38281 44.5677 7.1875 44.138 6.79688 43.8359C6.40625 43.5286 5.69792 43.2266 4.67188 42.9297ZM17.7344 43.8672C17.7344 45.1536 17.4401 46.1901 16.8516 46.9766C16.263 47.763 15.4661 48.1562 14.4609 48.1562C13.4349 48.1562 12.6276 47.8307 12.0391 47.1797V51.25H10.5938V39.5469H11.9141L11.9844 40.4844C12.5729 39.7552 13.3906 39.3906 14.4375 39.3906C15.4531 39.3906 16.2552 39.7734 16.8438 40.5391C17.4375 41.3047 17.7344 42.3698 17.7344 43.7344V43.8672ZM16.2891 43.7031C16.2891 42.75 16.0859 41.9974 15.6797 41.4453C15.2734 40.8932 14.7161 40.6172 14.0078 40.6172C13.1328 40.6172 12.4766 41.0052 12.0391 41.7812V45.8203C12.4714 46.5911 13.1328 46.9766 14.0234 46.9766C14.7161 46.9766 15.2656 46.7031 15.6719 46.1562C16.0833 45.6042 16.2891 44.7865 16.2891 43.7031ZM19.1953 43.6953C19.1953 42.8672 19.3568 42.1224 19.6797 41.4609C20.0078 40.7995 20.4609 40.2891 21.0391 39.9297C21.6224 39.5703 22.2865 39.3906 23.0312 39.3906C24.1823 39.3906 25.112 39.7891 25.8203 40.5859C26.5339 41.3828 26.8906 42.4427 26.8906 43.7656V43.8672C26.8906 44.6901 26.7318 45.4297 26.4141 46.0859C26.1016 46.737 25.651 47.2448 25.0625 47.6094C24.4792 47.974 23.8073 48.1562 23.0469 48.1562C21.901 48.1562 20.9714 47.7578 20.2578 46.9609C19.5495 46.1641 19.1953 45.1094 19.1953 43.7969V43.6953ZM20.6484 43.8672C20.6484 44.8047 20.8646 45.5573 21.2969 46.125C21.7344 46.6927 22.3177 46.9766 23.0469 46.9766C23.7812 46.9766 24.3646 46.6901 24.7969 46.1172C25.2292 45.5391 25.4453 44.7318 25.4453 43.6953C25.4453 42.7682 25.224 42.0182 24.7812 41.4453C24.3438 40.8672 23.7604 40.5781 23.0312 40.5781C22.3177 40.5781 21.7422 40.862 21.3047 41.4297C20.8672 41.9974 20.6484 42.8099 20.6484 43.8672ZM30.6641 37.5V39.5469H32.2422V40.6641H30.6641V45.9062C30.6641 46.2448 30.7344 46.5 30.875 46.6719C31.0156 46.8385 31.2552 46.9219 31.5938 46.9219C31.7604 46.9219 31.9896 46.8906 32.2812 46.8281V48C31.901 48.1042 31.5312 48.1562 31.1719 48.1562C30.526 48.1562 30.0391 47.9609 29.7109 47.5703C29.3828 47.1797 29.2188 46.625 29.2188 45.9062V40.6641H27.6797V39.5469H29.2188V37.5H30.6641ZM35.5078 48H34.0625V39.5469H35.5078V48ZM33.9453 37.3047C33.9453 37.0703 34.0156 36.8724 34.1562 36.7109C34.3021 36.5495 34.5156 36.4688 34.7969 36.4688C35.0781 36.4688 35.2917 36.5495 35.4375 36.7109C35.5833 36.8724 35.6562 37.0703 35.6562 37.3047C35.6562 37.5391 35.5833 37.7344 35.4375 37.8906C35.2917 38.0469 35.0781 38.125 34.7969 38.125C34.5156 38.125 34.3021 38.0469 34.1562 37.8906C34.0156 37.7344 33.9453 37.5391 33.9453 37.3047ZM38.5391 48V40.6641H37.2031V39.5469H38.5391V38.6797C38.5391 37.7734 38.7812 37.0729 39.2656 36.5781C39.75 36.0833 40.4349 35.8359 41.3203 35.8359C41.6536 35.8359 41.9844 35.8802 42.3125 35.9688L42.2344 37.1406C41.9896 37.0938 41.7292 37.0703 41.4531 37.0703C40.9844 37.0703 40.6224 37.2083 40.3672 37.4844C40.112 37.7552 39.9844 38.1458 39.9844 38.6562V39.5469H41.7891V40.6641H39.9844V48H38.5391ZM46.1562 45.8828L48.125 39.5469H49.6719L46.2734 49.3047C45.7474 50.7109 44.9115 51.4141 43.7656 51.4141L43.4922 51.3906L42.9531 51.2891V50.1172L43.3438 50.1484C43.8333 50.1484 44.2135 50.0495 44.4844 49.8516C44.7604 49.6536 44.987 49.2917 45.1641 48.7656L45.4844 47.9062L42.4688 39.5469H44.0469L46.1562 45.8828Z" fill="#E0E0E0"/>
<path d="M6.61719 54.6172V55.8438H6.35156C5.22656 55.8646 4.33073 56.1979 3.66406 56.8438C2.9974 57.4896 2.61198 58.3984 2.50781 59.5703C3.10677 58.8828 3.92448 58.5391 4.96094 58.5391C5.95052 58.5391 6.73958 58.888 7.32812 59.5859C7.92188 60.2839 8.21875 61.1849 8.21875 62.2891C8.21875 63.4609 7.89844 64.3984 7.25781 65.1016C6.6224 65.8047 5.76823 66.1562 4.69531 66.1562C3.60677 66.1562 2.72396 65.7396 2.04688 64.9062C1.36979 64.0677 1.03125 62.9896 1.03125 61.6719V61.1172C1.03125 59.0234 1.47656 57.4245 2.36719 56.3203C3.26302 55.2109 4.59375 54.6432 6.35938 54.6172H6.61719ZM4.71875 59.7422C4.22396 59.7422 3.76823 59.8906 3.35156 60.1875C2.9349 60.4844 2.64583 60.8568 2.48438 61.3047V61.8359C2.48438 62.7734 2.69531 63.5286 3.11719 64.1016C3.53906 64.6745 4.0651 64.9609 4.69531 64.9609C5.34635 64.9609 5.85677 64.7214 6.22656 64.2422C6.60156 63.763 6.78906 63.1354 6.78906 62.3594C6.78906 61.5781 6.59896 60.9479 6.21875 60.4688C5.84375 59.9844 5.34375 59.7422 4.71875 59.7422ZM16.8281 57.5938C16.8281 58.1615 16.6771 58.6667 16.375 59.1094C16.0781 59.5521 15.6745 59.8984 15.1641 60.1484C15.7578 60.4036 16.2266 60.776 16.5703 61.2656C16.9193 61.7552 17.0938 62.3099 17.0938 62.9297C17.0938 63.9141 16.7604 64.6979 16.0938 65.2812C15.4323 65.8646 14.5599 66.1562 13.4766 66.1562C12.3828 66.1562 11.5052 65.8646 10.8438 65.2812C10.1875 64.6927 9.85938 63.9089 9.85938 62.9297C9.85938 62.3151 10.026 61.7604 10.3594 61.2656C10.6979 60.7708 11.1641 60.3958 11.7578 60.1406C11.2526 59.8906 10.8542 59.5443 10.5625 59.1016C10.2708 58.6589 10.125 58.1562 10.125 57.5938C10.125 56.6354 10.4323 55.875 11.0469 55.3125C11.6615 54.75 12.4714 54.4688 13.4766 54.4688C14.4766 54.4688 15.2839 54.75 15.8984 55.3125C16.5182 55.875 16.8281 56.6354 16.8281 57.5938ZM15.6484 62.8984C15.6484 62.263 15.4453 61.7448 15.0391 61.3438C14.638 60.9427 14.112 60.7422 13.4609 60.7422C12.8099 60.7422 12.2865 60.9401 11.8906 61.3359C11.5 61.7318 11.3047 62.2526 11.3047 62.8984C11.3047 63.5443 11.4948 64.0521 11.875 64.4219C12.2604 64.7917 12.7943 64.9766 13.4766 64.9766C14.1536 64.9766 14.6849 64.7917 15.0703 64.4219C15.4557 64.0469 15.6484 63.5391 15.6484 62.8984ZM13.4766 55.6562C12.9089 55.6562 12.4479 55.8333 12.0938 56.1875C11.7448 56.5365 11.5703 57.013 11.5703 57.6172C11.5703 58.1953 11.7422 58.6641 12.0859 59.0234C12.4349 59.3776 12.8984 59.5547 13.4766 59.5547C14.0547 59.5547 14.5156 59.3776 14.8594 59.0234C15.2083 58.6641 15.3828 58.1953 15.3828 57.6172C15.3828 57.0391 15.2031 56.5677 14.8438 56.2031C14.4844 55.8385 14.0286 55.6562 13.4766 55.6562ZM18.7891 56.8125C18.7891 56.1302 19.0052 55.5677 19.4375 55.125C19.875 54.6823 20.4349 54.4609 21.1172 54.4609C21.8099 54.4609 22.3698 54.6849 22.7969 55.1328C23.2292 55.5755 23.4453 56.151 23.4453 56.8594V57.4141C23.4453 58.1016 23.2266 58.6641 22.7891 59.1016C22.3568 59.5339 21.8047 59.75 21.1328 59.75C20.4557 59.75 19.8958 59.5339 19.4531 59.1016C19.0104 58.6641 18.7891 58.0833 18.7891 57.3594V56.8125ZM19.8672 57.4141C19.8672 57.8203 19.9818 58.1562 20.2109 58.4219C20.4401 58.6823 20.7474 58.8125 21.1328 58.8125C21.5026 58.8125 21.7995 58.6849 22.0234 58.4297C22.2526 58.1745 22.3672 57.8255 22.3672 57.3828V56.8125C22.3672 56.4062 22.2552 56.0703 22.0312 55.8047C21.8073 55.5391 21.5026 55.4062 21.1172 55.4062C20.7318 55.4062 20.4271 55.5391 20.2031 55.8047C19.9792 56.0703 19.8672 56.4167 19.8672 56.8438V57.4141ZM24.3281 63.2109C24.3281 62.5286 24.5443 61.9688 24.9766 61.5312C25.4141 61.0885 25.974 60.8672 26.6562 60.8672C27.3385 60.8672 27.8984 61.0859 28.3359 61.5234C28.7734 61.9609 28.9922 62.5417 28.9922 63.2656V63.8203C28.9922 64.5026 28.7734 65.0651 28.3359 65.5078C27.9036 65.9453 27.349 66.1641 26.6719 66.1641C25.9948 66.1641 25.4349 65.9479 24.9922 65.5156C24.5495 65.0781 24.3281 64.4974 24.3281 63.7734V63.2109ZM25.4062 63.8203C25.4062 64.2318 25.5208 64.5703 25.75 64.8359C25.9792 65.0964 26.2865 65.2266 26.6719 65.2266C27.0469 65.2266 27.3464 65.099 27.5703 64.8438C27.7943 64.5833 27.9062 64.2318 27.9062 63.7891V63.2109C27.9062 62.7995 27.7917 62.4635 27.5625 62.2031C27.3385 61.9427 27.0365 61.8125 26.6562 61.8125C26.2865 61.8125 25.9844 61.9427 25.75 62.2031C25.5208 62.4583 25.4062 62.8047 25.4062 63.2422V63.8203ZM21.4609 65.1406L20.6406 64.625L26.1953 55.7344L27.0156 56.25L21.4609 65.1406Z" fill="#F2994A"/>
<path d="M269.602 11.0312H264.836L263.766 14H262.219L266.562 2.625H267.875L272.227 14H270.688L269.602 11.0312ZM265.289 9.79688H269.156L267.219 4.47656L265.289 9.79688ZM280.672 9.86719C280.672 11.1536 280.378 12.1901 279.789 12.9766C279.201 13.763 278.404 14.1562 277.398 14.1562C276.372 14.1562 275.565 13.8307 274.977 13.1797V17.25H273.531V5.54688H274.852L274.922 6.48438C275.51 5.75521 276.328 5.39062 277.375 5.39062C278.391 5.39062 279.193 5.77344 279.781 6.53906C280.375 7.30469 280.672 8.36979 280.672 9.73438V9.86719ZM279.227 9.70312C279.227 8.75 279.023 7.9974 278.617 7.44531C278.211 6.89323 277.654 6.61719 276.945 6.61719C276.07 6.61719 275.414 7.00521 274.977 7.78125V11.8203C275.409 12.5911 276.07 12.9766 276.961 12.9766C277.654 12.9766 278.203 12.7031 278.609 12.1562C279.021 11.6042 279.227 10.7865 279.227 9.70312ZM289.656 9.86719C289.656 11.1536 289.362 12.1901 288.773 12.9766C288.185 13.763 287.388 14.1562 286.383 14.1562C285.357 14.1562 284.549 13.8307 283.961 13.1797V17.25H282.516V5.54688H283.836L283.906 6.48438C284.495 5.75521 285.312 5.39062 286.359 5.39062C287.375 5.39062 288.177 5.77344 288.766 6.53906C289.359 7.30469 289.656 8.36979 289.656 9.73438V9.86719ZM288.211 9.70312C288.211 8.75 288.008 7.9974 287.602 7.44531C287.195 6.89323 286.638 6.61719 285.93 6.61719C285.055 6.61719 284.398 7.00521 283.961 7.78125V11.8203C284.393 12.5911 285.055 12.9766 285.945 12.9766C286.638 12.9766 287.188 12.7031 287.594 12.1562C288.005 11.6042 288.211 10.7865 288.211 9.70312ZM293.07 14H291.625V2H293.07V14ZM298.898 14.1562C297.753 14.1562 296.82 13.7812 296.102 13.0312C295.383 12.276 295.023 11.2682 295.023 10.0078V9.74219C295.023 8.90365 295.182 8.15625 295.5 7.5C295.823 6.83854 296.271 6.32292 296.844 5.95312C297.422 5.57812 298.047 5.39062 298.719 5.39062C299.818 5.39062 300.672 5.7526 301.281 6.47656C301.891 7.20052 302.195 8.23698 302.195 9.58594V10.1875H296.469C296.49 11.0208 296.732 11.6953 297.195 12.2109C297.664 12.7214 298.258 12.9766 298.977 12.9766C299.487 12.9766 299.919 12.8724 300.273 12.6641C300.628 12.4557 300.938 12.1797 301.203 11.8359L302.086 12.5234C301.378 13.612 300.315 14.1562 298.898 14.1562ZM298.719 6.57812C298.135 6.57812 297.646 6.79167 297.25 7.21875C296.854 7.64062 296.609 8.23438 296.516 9H300.75V8.89062C300.708 8.15625 300.51 7.58854 300.156 7.1875C299.802 6.78125 299.323 6.57812 298.719 6.57812ZM265.258 20.625L268.977 29.9062L272.695 20.625H274.641V32H273.141V27.5703L273.281 22.7891L269.547 32H268.398L264.672 22.8125L264.82 27.5703V32H263.32V20.625H265.258ZM282.281 31.1641C281.719 31.8255 280.893 32.1562 279.805 32.1562C278.904 32.1562 278.216 31.8958 277.742 31.375C277.273 30.849 277.036 30.0729 277.031 29.0469V23.5469H278.477V29.0078C278.477 30.2891 278.997 30.9297 280.039 30.9297C281.143 30.9297 281.878 30.5182 282.242 29.6953V23.5469H283.688V32H282.312L282.281 31.1641ZM290.812 29.7578C290.812 29.3672 290.664 29.0651 290.367 28.8516C290.076 28.6328 289.562 28.4453 288.828 28.2891C288.099 28.1328 287.518 27.9453 287.086 27.7266C286.659 27.5078 286.341 27.2474 286.133 26.9453C285.93 26.6432 285.828 26.2839 285.828 25.8672C285.828 25.1745 286.12 24.5885 286.703 24.1094C287.292 23.6302 288.042 23.3906 288.953 23.3906C289.911 23.3906 290.688 23.638 291.281 24.1328C291.88 24.6276 292.18 25.2604 292.18 26.0312H290.727C290.727 25.6354 290.557 25.2943 290.219 25.0078C289.885 24.7214 289.464 24.5781 288.953 24.5781C288.427 24.5781 288.016 24.6927 287.719 24.9219C287.422 25.151 287.273 25.4505 287.273 25.8203C287.273 26.1693 287.411 26.4323 287.688 26.6094C287.964 26.7865 288.461 26.9557 289.18 27.1172C289.904 27.2786 290.49 27.4714 290.938 27.6953C291.385 27.9193 291.716 28.1901 291.93 28.5078C292.148 28.8203 292.258 29.2031 292.258 29.6562C292.258 30.4115 291.956 31.0182 291.352 31.4766C290.747 31.9297 289.964 32.1562 289 32.1562C288.323 32.1562 287.724 32.0365 287.203 31.7969C286.682 31.5573 286.273 31.224 285.977 30.7969C285.685 30.3646 285.539 29.8984 285.539 29.3984H286.984C287.01 29.8828 287.203 30.2682 287.562 30.5547C287.927 30.8359 288.406 30.9766 289 30.9766C289.547 30.9766 289.984 30.8672 290.312 30.6484C290.646 30.4245 290.812 30.1276 290.812 29.7578ZM295.711 32H294.266V23.5469H295.711V32ZM294.148 21.3047C294.148 21.0703 294.219 20.8724 294.359 20.7109C294.505 20.5495 294.719 20.4688 295 20.4688C295.281 20.4688 295.495 20.5495 295.641 20.7109C295.786 20.8724 295.859 21.0703 295.859 21.3047C295.859 21.5391 295.786 21.7344 295.641 21.8906C295.495 22.0469 295.281 22.125 295 22.125C294.719 22.125 294.505 22.0469 294.359 21.8906C294.219 21.7344 294.148 21.5391 294.148 21.3047ZM301.422 30.9766C301.938 30.9766 302.388 30.8203 302.773 30.5078C303.159 30.1953 303.372 29.8047 303.414 29.3359H304.781C304.755 29.8203 304.589 30.2812 304.281 30.7188C303.974 31.1562 303.562 31.5052 303.047 31.7656C302.536 32.026 301.995 32.1562 301.422 32.1562C300.271 32.1562 299.354 31.7734 298.672 31.0078C297.995 30.237 297.656 29.1849 297.656 27.8516V27.6094C297.656 26.7865 297.807 26.0547 298.109 25.4141C298.411 24.7734 298.844 24.276 299.406 23.9219C299.974 23.5677 300.643 23.3906 301.414 23.3906C302.362 23.3906 303.148 23.6745 303.773 24.2422C304.404 24.8099 304.74 25.5469 304.781 26.4531H303.414C303.372 25.9062 303.164 25.4583 302.789 25.1094C302.419 24.7552 301.961 24.5781 301.414 24.5781C300.68 24.5781 300.109 24.8438 299.703 25.375C299.302 25.901 299.102 26.6641 299.102 27.6641V27.9375C299.102 28.9115 299.302 29.6615 299.703 30.1875C300.104 30.7135 300.677 30.9766 301.422 30.9766Z" fill="#E0E0E0"/>
<path d="M270.398 50H262.945V48.9609L266.883 44.5859C267.466 43.9245 267.867 43.388 268.086 42.9766C268.31 42.5599 268.422 42.1302 268.422 41.6875C268.422 41.0938 268.242 40.6068 267.883 40.2266C267.523 39.8464 267.044 39.6562 266.445 39.6562C265.727 39.6562 265.167 39.862 264.766 40.2734C264.37 40.6797 264.172 41.2474 264.172 41.9766H262.727C262.727 40.9297 263.062 40.0833 263.734 39.4375C264.411 38.7917 265.315 38.4688 266.445 38.4688C267.503 38.4688 268.339 38.7474 268.953 39.3047C269.568 39.8568 269.875 40.5938 269.875 41.5156C269.875 42.6354 269.161 43.9688 267.734 45.5156L264.688 48.8203H270.398V50ZM276.68 50H275.227V40.3672L272.312 41.4375V40.125L276.453 38.5703H276.68V50ZM280.789 40.8125C280.789 40.1302 281.005 39.5677 281.438 39.125C281.875 38.6823 282.435 38.4609 283.117 38.4609C283.81 38.4609 284.37 38.6849 284.797 39.1328C285.229 39.5755 285.445 40.151 285.445 40.8594V41.4141C285.445 42.1016 285.227 42.6641 284.789 43.1016C284.357 43.5339 283.805 43.75 283.133 43.75C282.456 43.75 281.896 43.5339 281.453 43.1016C281.01 42.6641 280.789 42.0833 280.789 41.3594V40.8125ZM281.867 41.4141C281.867 41.8203 281.982 42.1562 282.211 42.4219C282.44 42.6823 282.747 42.8125 283.133 42.8125C283.503 42.8125 283.799 42.6849 284.023 42.4297C284.253 42.1745 284.367 41.8255 284.367 41.3828V40.8125C284.367 40.4062 284.255 40.0703 284.031 39.8047C283.807 39.5391 283.503 39.4062 283.117 39.4062C282.732 39.4062 282.427 39.5391 282.203 39.8047C281.979 40.0703 281.867 40.4167 281.867 40.8438V41.4141ZM286.328 47.2109C286.328 46.5286 286.544 45.9688 286.977 45.5312C287.414 45.0885 287.974 44.8672 288.656 44.8672C289.339 44.8672 289.898 45.0859 290.336 45.5234C290.773 45.9609 290.992 46.5417 290.992 47.2656V47.8203C290.992 48.5026 290.773 49.0651 290.336 49.5078C289.904 49.9453 289.349 50.1641 288.672 50.1641C287.995 50.1641 287.435 49.9479 286.992 49.5156C286.549 49.0781 286.328 48.4974 286.328 47.7734V47.2109ZM287.406 47.8203C287.406 48.2318 287.521 48.5703 287.75 48.8359C287.979 49.0964 288.286 49.2266 288.672 49.2266C289.047 49.2266 289.346 49.099 289.57 48.8438C289.794 48.5833 289.906 48.2318 289.906 47.7891V47.2109C289.906 46.7995 289.792 46.4635 289.562 46.2031C289.339 45.9427 289.036 45.8125 288.656 45.8125C288.286 45.8125 287.984 45.9427 287.75 46.2031C287.521 46.4583 287.406 46.8047 287.406 47.2422V47.8203ZM283.461 49.1406L282.641 48.625L288.195 39.7344L289.016 40.25L283.461 49.1406Z" fill="#F2994A"/>
<path d="M283.789 83.3359L286.758 77.625H288.461L284.539 84.7578V89H283.039V84.7578L279.117 77.625H280.836L283.789 83.3359ZM288.805 84.6953C288.805 83.8672 288.966 83.1224 289.289 82.4609C289.617 81.7995 290.07 81.2891 290.648 80.9297C291.232 80.5703 291.896 80.3906 292.641 80.3906C293.792 80.3906 294.721 80.7891 295.43 81.5859C296.143 82.3828 296.5 83.4427 296.5 84.7656V84.8672C296.5 85.6901 296.341 86.4297 296.023 87.0859C295.711 87.737 295.26 88.2448 294.672 88.6094C294.089 88.974 293.417 89.1562 292.656 89.1562C291.51 89.1562 290.581 88.7578 289.867 87.9609C289.159 87.1641 288.805 86.1094 288.805 84.7969V84.6953ZM290.258 84.8672C290.258 85.8047 290.474 86.5573 290.906 87.125C291.344 87.6927 291.927 87.9766 292.656 87.9766C293.391 87.9766 293.974 87.6901 294.406 87.1172C294.839 86.5391 295.055 85.7318 295.055 84.6953C295.055 83.7682 294.833 83.0182 294.391 82.4453C293.953 81.8672 293.37 81.5781 292.641 81.5781C291.927 81.5781 291.352 81.862 290.914 82.4297C290.477 82.9974 290.258 83.8099 290.258 84.8672ZM303.531 88.1641C302.969 88.8255 302.143 89.1562 301.055 89.1562C300.154 89.1562 299.466 88.8958 298.992 88.375C298.523 87.849 298.286 87.0729 298.281 86.0469V80.5469H299.727V86.0078C299.727 87.2891 300.247 87.9297 301.289 87.9297C302.393 87.9297 303.128 87.5182 303.492 86.6953V80.5469H304.938V89H303.562L303.531 88.1641ZM309.102 78.5V80.5469H310.68V81.6641H309.102V86.9062C309.102 87.2448 309.172 87.5 309.312 87.6719C309.453 87.8385 309.693 87.9219 310.031 87.9219C310.198 87.9219 310.427 87.8906 310.719 87.8281V89C310.339 89.1042 309.969 89.1562 309.609 89.1562C308.964 89.1562 308.477 88.9609 308.148 88.5703C307.82 88.1797 307.656 87.625 307.656 86.9062V81.6641H306.117V80.5469H307.656V78.5H309.102ZM317.594 88.1641C317.031 88.8255 316.206 89.1562 315.117 89.1562C314.216 89.1562 313.529 88.8958 313.055 88.375C312.586 87.849 312.349 87.0729 312.344 86.0469V80.5469H313.789V86.0078C313.789 87.2891 314.31 87.9297 315.352 87.9297C316.456 87.9297 317.19 87.5182 317.555 86.6953V80.5469H319V89H317.625L317.594 88.1641ZM328.359 84.8672C328.359 86.1589 328.062 87.1979 327.469 87.9844C326.875 88.7656 326.078 89.1562 325.078 89.1562C324.01 89.1562 323.185 88.7786 322.602 88.0234L322.531 89H321.203V77H322.648V81.4766C323.232 80.7526 324.036 80.3906 325.062 80.3906C326.089 80.3906 326.893 80.7786 327.477 81.5547C328.065 82.3307 328.359 83.3932 328.359 84.7422V84.8672ZM326.914 84.7031C326.914 83.7188 326.724 82.9583 326.344 82.4219C325.964 81.8854 325.417 81.6172 324.703 81.6172C323.75 81.6172 323.065 82.0599 322.648 82.9453V86.6016C323.091 87.487 323.781 87.9297 324.719 87.9297C325.411 87.9297 325.951 87.6615 326.336 87.125C326.721 86.5885 326.914 85.7812 326.914 84.7031ZM333.695 89.1562C332.549 89.1562 331.617 88.7812 330.898 88.0312C330.18 87.276 329.82 86.2682 329.82 85.0078V84.7422C329.82 83.9036 329.979 83.1562 330.297 82.5C330.62 81.8385 331.068 81.3229 331.641 80.9531C332.219 80.5781 332.844 80.3906 333.516 80.3906C334.615 80.3906 335.469 80.7526 336.078 81.4766C336.688 82.2005 336.992 83.237 336.992 84.5859V85.1875H331.266C331.286 86.0208 331.529 86.6953 331.992 87.2109C332.461 87.7214 333.055 87.9766 333.773 87.9766C334.284 87.9766 334.716 87.8724 335.07 87.6641C335.424 87.4557 335.734 87.1797 336 86.8359L336.883 87.5234C336.174 88.612 335.112 89.1562 333.695 89.1562ZM333.516 81.5781C332.932 81.5781 332.443 81.7917 332.047 82.2188C331.651 82.6406 331.406 83.2344 331.312 84H335.547V83.8906C335.505 83.1562 335.307 82.5885 334.953 82.1875C334.599 81.7812 334.12 81.5781 333.516 81.5781Z" fill="#E0E0E0"/>
<path d="M287.289 96.4375L282.578 107H281.062L285.758 96.8125H279.602V95.625H287.289V96.4375ZM288.805 97.8125C288.805 97.1302 289.021 96.5677 289.453 96.125C289.891 95.6823 290.451 95.4609 291.133 95.4609C291.826 95.4609 292.385 95.6849 292.812 96.1328C293.245 96.5755 293.461 97.151 293.461 97.8594V98.4141C293.461 99.1016 293.242 99.6641 292.805 100.102C292.372 100.534 291.82 100.75 291.148 100.75C290.471 100.75 289.911 100.534 289.469 100.102C289.026 99.6641 288.805 99.0833 288.805 98.3594V97.8125ZM289.883 98.4141C289.883 98.8203 289.997 99.1562 290.227 99.4219C290.456 99.6823 290.763 99.8125 291.148 99.8125C291.518 99.8125 291.815 99.6849 292.039 99.4297C292.268 99.1745 292.383 98.8255 292.383 98.3828V97.8125C292.383 97.4062 292.271 97.0703 292.047 96.8047C291.823 96.5391 291.518 96.4062 291.133 96.4062C290.747 96.4062 290.443 96.5391 290.219 96.8047C289.995 97.0703 289.883 97.4167 289.883 97.8438V98.4141ZM294.344 104.211C294.344 103.529 294.56 102.969 294.992 102.531C295.43 102.089 295.99 101.867 296.672 101.867C297.354 101.867 297.914 102.086 298.352 102.523C298.789 102.961 299.008 103.542 299.008 104.266V104.82C299.008 105.503 298.789 106.065 298.352 106.508C297.919 106.945 297.365 107.164 296.688 107.164C296.01 107.164 295.451 106.948 295.008 106.516C294.565 106.078 294.344 105.497 294.344 104.773V104.211ZM295.422 104.82C295.422 105.232 295.536 105.57 295.766 105.836C295.995 106.096 296.302 106.227 296.688 106.227C297.062 106.227 297.362 106.099 297.586 105.844C297.81 105.583 297.922 105.232 297.922 104.789V104.211C297.922 103.799 297.807 103.464 297.578 103.203C297.354 102.943 297.052 102.812 296.672 102.812C296.302 102.812 296 102.943 295.766 103.203C295.536 103.458 295.422 103.805 295.422 104.242V104.82ZM291.477 106.141L290.656 105.625L296.211 96.7344L297.031 97.25L291.477 106.141Z" fill="#F2994A"/>
<path d="M269.07 125.68C269.07 126.794 268.883 127.768 268.508 128.602C268.133 129.43 267.602 130.062 266.914 130.5C266.227 130.938 265.424 131.156 264.508 131.156C263.612 131.156 262.818 130.938 262.125 130.5C261.432 130.057 260.893 129.43 260.508 128.617C260.128 127.799 259.932 126.854 259.922 125.781V124.961C259.922 123.867 260.112 122.901 260.492 122.062C260.872 121.224 261.409 120.583 262.102 120.141C262.799 119.693 263.596 119.469 264.492 119.469C265.404 119.469 266.206 119.69 266.898 120.133C267.596 120.57 268.133 121.208 268.508 122.047C268.883 122.88 269.07 123.852 269.07 124.961V125.68ZM267.578 124.945C267.578 123.596 267.307 122.562 266.766 121.844C266.224 121.12 265.466 120.758 264.492 120.758C263.544 120.758 262.797 121.12 262.25 121.844C261.708 122.562 261.43 123.562 261.414 124.844V125.68C261.414 126.987 261.688 128.016 262.234 128.766C262.786 129.51 263.544 129.883 264.508 129.883C265.477 129.883 266.227 129.531 266.758 128.828C267.289 128.12 267.562 127.107 267.578 125.789V124.945ZM273.055 120.5V122.547H274.633V123.664H273.055V128.906C273.055 129.245 273.125 129.5 273.266 129.672C273.406 129.839 273.646 129.922 273.984 129.922C274.151 129.922 274.38 129.891 274.672 129.828V131C274.292 131.104 273.922 131.156 273.562 131.156C272.917 131.156 272.43 130.961 272.102 130.57C271.773 130.18 271.609 129.625 271.609 128.906V123.664H270.07V122.547H271.609V120.5H273.055ZM277.773 123.57C278.414 122.784 279.247 122.391 280.273 122.391C282.06 122.391 282.961 123.398 282.977 125.414V131H281.531V125.406C281.526 124.797 281.385 124.346 281.109 124.055C280.839 123.763 280.414 123.617 279.836 123.617C279.367 123.617 278.956 123.742 278.602 123.992C278.247 124.242 277.971 124.57 277.773 124.977V131H276.328V119H277.773V123.57ZM288.648 131.156C287.503 131.156 286.57 130.781 285.852 130.031C285.133 129.276 284.773 128.268 284.773 127.008V126.742C284.773 125.904 284.932 125.156 285.25 124.5C285.573 123.839 286.021 123.323 286.594 122.953C287.172 122.578 287.797 122.391 288.469 122.391C289.568 122.391 290.422 122.753 291.031 123.477C291.641 124.201 291.945 125.237 291.945 126.586V127.188H286.219C286.24 128.021 286.482 128.695 286.945 129.211C287.414 129.721 288.008 129.977 288.727 129.977C289.237 129.977 289.669 129.872 290.023 129.664C290.378 129.456 290.688 129.18 290.953 128.836L291.836 129.523C291.128 130.612 290.065 131.156 288.648 131.156ZM288.469 123.578C287.885 123.578 287.396 123.792 287 124.219C286.604 124.641 286.359 125.234 286.266 126H290.5V125.891C290.458 125.156 290.26 124.589 289.906 124.188C289.552 123.781 289.073 123.578 288.469 123.578ZM297.711 123.844C297.492 123.807 297.255 123.789 297 123.789C296.052 123.789 295.409 124.193 295.07 125V131H293.625V122.547H295.031L295.055 123.523C295.529 122.768 296.201 122.391 297.07 122.391C297.352 122.391 297.565 122.427 297.711 122.5V123.844Z" fill="#E0E0E0"/>
<path d="M266.047 145.18H267.625V146.359H266.047V149H264.594V146.359H259.414V145.508L264.508 137.625H266.047V145.18ZM261.055 145.18H264.594V139.602L264.422 139.914L261.055 145.18ZM268.805 139.812C268.805 139.13 269.021 138.568 269.453 138.125C269.891 137.682 270.451 137.461 271.133 137.461C271.826 137.461 272.385 137.685 272.812 138.133C273.245 138.576 273.461 139.151 273.461 139.859V140.414C273.461 141.102 273.242 141.664 272.805 142.102C272.372 142.534 271.82 142.75 271.148 142.75C270.471 142.75 269.911 142.534 269.469 142.102C269.026 141.664 268.805 141.083 268.805 140.359V139.812ZM269.883 140.414C269.883 140.82 269.997 141.156 270.227 141.422C270.456 141.682 270.763 141.812 271.148 141.812C271.518 141.812 271.815 141.685 272.039 141.43C272.268 141.174 272.383 140.826 272.383 140.383V139.812C272.383 139.406 272.271 139.07 272.047 138.805C271.823 138.539 271.518 138.406 271.133 138.406C270.747 138.406 270.443 138.539 270.219 138.805C269.995 139.07 269.883 139.417 269.883 139.844V140.414ZM274.344 146.211C274.344 145.529 274.56 144.969 274.992 144.531C275.43 144.089 275.99 143.867 276.672 143.867C277.354 143.867 277.914 144.086 278.352 144.523C278.789 144.961 279.008 145.542 279.008 146.266V146.82C279.008 147.503 278.789 148.065 278.352 148.508C277.919 148.945 277.365 149.164 276.688 149.164C276.01 149.164 275.451 148.948 275.008 148.516C274.565 148.078 274.344 147.497 274.344 146.773V146.211ZM275.422 146.82C275.422 147.232 275.536 147.57 275.766 147.836C275.995 148.096 276.302 148.227 276.688 148.227C277.062 148.227 277.362 148.099 277.586 147.844C277.81 147.583 277.922 147.232 277.922 146.789V146.211C277.922 145.799 277.807 145.464 277.578 145.203C277.354 144.943 277.052 144.812 276.672 144.812C276.302 144.812 276 144.943 275.766 145.203C275.536 145.458 275.422 145.805 275.422 146.242V146.82ZM271.477 148.141L270.656 147.625L276.211 138.734L277.031 139.25L271.477 148.141Z" fill="#F2994A"/>
<defs>
<filter id="filter0_d" x="218" y="75" width="57" height="22.5" filterUnits="userSpaceOnUse" color-interpolation-filters="sRGB">
<feFlood flood-opacity="0" result="BackgroundImageFix"/>
<feColorMatrix in="SourceAlpha" type="matrix" values="0 0 0 0 0 0 0 0 0 0 0 0 0 0 0 0 0 0 127 0"/>
<feOffset dy="4"/>
<feGaussianBlur stdDeviation="2"/>
<feColorMatrix type="matrix" values="0 0 0 0 0 0 0 0 0 0 0 0 0 0 0 0 0 0 0.25 0"/>
<feBlend mode="normal" in2="BackgroundImageFix" result="effect1_dropShadow"/>
<feBlend mode="normal" in="SourceGraphic" in2="effect1_dropShadow" result="shape"/>
</filter>
</defs>
</svg>
